<?xml version="1.0" standalone="no"?>
<!DOCTYPE svg PUBLIC "-//W3C//DTD SVG 20010904//EN"
 "http://www.w3.org/TR/2001/REC-SVG-20010904/DTD/svg10.dtd">
<svg version="1.0" xmlns="http://www.w3.org/2000/svg"
 width="576.000000pt" height="576.000000pt" viewBox="0 0 576.000000 576.000000"
 preserveAspectRatio="xMidYMid meet">
<metadata>
Created by potrace 1.14, written by Peter Selinger 2001-2017
</metadata>
<g transform="translate(0.000000,576.000000) scale(0.100000,-0.100000)"
fill="#000000" stroke="none">
<path d="M1135 5433 c-550 -71 -983 -465 -1106 -1003 -29 -128 -35 -321 -15
-455 82 -527 460 -931 986 -1057 80 -19 134 -21 945 -29 473 -6 1063 -8 1310
-6 412 4 457 6 535 25 509 123 877 497 986 1002 26 119 26 381 0 500 -176 818
-1034 1254 -1791 911 -186 -84 -397 -266 -515 -442 -34 -52 -66 -94 -70 -94
-4 0 -36 43 -71 95 -156 233 -412 423 -681 504 -153 47 -371 67 -513 49z m280
-648 c288 -60 505 -329 505 -625 0 -349 -291 -640 -640 -640 -349 0 -640 291
-640 640 0 237 141 465 350 569 139 68 279 87 425 56z m2240 0 c182 -38 352
-170 434 -335 126 -256 80 -542 -118 -741 -252 -252 -650 -252 -902 0 -252
252 -252 650 0 902 156 155 370 219 586 174z"/>
<path d="M1200 4467 c-91 -26 -173 -97 -213 -186 -29 -64 -29 -178 0 -243 30
-66 95 -133 162 -165 80 -39 182 -39 262 0 67 32 132 99 162 165 32 72 30 180
-6 253 -32 66 -100 132 -162 160 -57 25 -148 32 -205 16z"/>
<path d="M3440 4467 c-91 -26 -173 -97 -213 -186 -29 -64 -29 -178 0 -243 30
-66 95 -133 162 -165 80 -39 182 -39 262 0 67 32 132 99 162 165 32 72 30 180
-6 253 -32 66 -100 132 -162 160 -57 25 -148 32 -205 16z"/>
<path d="M5375 2874 c-60 -15 -135 -65 -497 -336 l-398 -298 0 -640 0 -640
398 -298 c218 -163 417 -306 442 -317 68 -31 179 -28 251 6 69 33 127 88 159
154 l25 50 3 1025 c3 1143 6 1079 -67 1176 -50 67 -143 115 -232 119 -35 2
-73 2 -84 -1z"/>
<path d="M247 2549 c-192 -46 -296 -254 -215 -431 32 -69 96 -136 163 -169 47
-22 62 -24 243 -27 105 -2 193 -5 193 -5 1 -1 5 -274 8 -607 7 -589 8 -607 29
-664 55 -149 160 -251 312 -302 53 -18 115 -19 1420 -19 1305 0 1367 1 1420
19 152 51 255 151 312 302 l23 59 0 730 c0 686 -1 733 -19 785 -51 152 -151
255 -302 312 l-59 23 -1745 2 c-999 0 -1761 -3 -1783 -8z"/>
</g>
</svg>
